<?xml version="1.0" encoding="utf-8"?>
<!-- Generator: Adobe Illustrator 15.1.0, SVG Export Plug-In  -->
<!DOCTYPE svg PUBLIC "-//W3C//DTD SVG 1.1//EN" "http://www.w3.org/Graphics/SVG/1.1/DTD/svg11.dtd" [
	<!ENTITY ns_flows "http://ns.adobe.com/Flows/1.0/">
]>
<svg version="1.1"
	 xmlns="http://www.w3.org/2000/svg" xmlns:xlink="http://www.w3.org/1999/xlink" xmlns:a="http://ns.adobe.com/AdobeSVGViewerExtensions/3.0/"
	 x="0px" y="0px" width="143px" height="114px" viewBox="44.88 6.351 143 114" enable-background="new 44.88 6.351 143 114"
	 xml:space="preserve">
<defs>
</defs>
<path display="none" fill="#DDDDDD" d="M149.981,49.519h-4.004V38.263c0-16.64-13.525-30.187-30.164-30.187
	c-16.64,0-30.164,13.547-30.164,30.164v11.256h-3.982c-3.938,0-7.141,3.203-7.141,7.141v53.298c0,3.938,3.203,7.141,7.141,7.141
	h68.337c3.938,0,7.141-3.203,7.141-7.141V56.637C157.122,52.722,153.918,49.519,149.981,49.519L149.981,49.519z M94.725,38.24
	c0-11.634,9.454-21.088,21.088-21.088s21.088,9.454,21.088,21.088v11.233H94.725V38.24z M148.023,108H83.602V58.595h64.443V108
	H148.023z M148.023,108"/>
<path display="none" fill="#DDDDDD" d="M115.813,101.216c2.514,0,4.538-2.025,4.538-4.539V84.976c0-2.514-2.024-4.537-4.538-4.537
	s-4.538,2.023-4.538,4.537v11.701C111.275,99.169,113.299,101.216,115.813,101.216L115.813,101.216z M115.813,101.216"/>
<path display="none" fill="#DDDDDD" d="M167.363,61.06c-16.393-19.867-34.014-29.629-52.379-29.166
	C85.35,32.726,64.952,60.017,64.096,61.179c-0.042,0.053-0.067,0.113-0.102,0.172c-0.027,0.047-0.054,0.086-0.081,0.135
	c-0.059,0.111-0.113,0.219-0.153,0.33c-0.018,0.053-0.039,0.113-0.059,0.168c-0.031,0.104-0.06,0.211-0.08,0.324
	c-0.011,0.066-0.025,0.139-0.033,0.213c-0.006,0.094-0.013,0.186-0.013,0.279s0.007,0.184,0.013,0.271
	c0.015,0.074,0.021,0.146,0.033,0.219c0.02,0.107,0.049,0.213,0.08,0.32c0.02,0.059,0.042,0.113,0.059,0.164
	c0.04,0.115,0.094,0.221,0.153,0.334c0.027,0.045,0.054,0.086,0.081,0.133c0.035,0.059,0.059,0.119,0.102,0.174
	c0.856,1.162,21.254,28.453,50.888,29.283c0.458,0.012,0.912,0.02,1.369,0.02c17.873,0,35.031-9.816,51.01-29.186
	c0.419-0.51,0.611-1.121,0.611-1.732S167.782,61.57,167.363,61.06L167.363,61.06z M115.171,88.259
	C92.129,87.634,74.523,68.513,69.768,62.8c4.755-5.719,22.362-24.842,45.404-25.469c16.079-0.416,31.7,8.152,46.52,25.469
	C146.872,80.117,131.264,88.722,115.171,88.259L115.171,88.259z M115.171,88.259"/>
<path display="none" fill="#DDDDDD" d="M117.138,44.888c-9.879,0-17.916,8.033-17.916,17.904c0,9.883,8.037,17.914,17.916,17.914
	c9.875,0,17.912-8.031,17.912-17.914C135.05,52.921,127.013,44.888,117.138,44.888L117.138,44.888z M117.138,75.267
	c-6.876,0-12.469-5.592-12.469-12.475c0-6.875,5.593-12.467,12.469-12.467c6.872,0,12.466,5.592,12.466,12.467
	C129.604,69.675,124.01,75.267,117.138,75.267L117.138,75.267z M117.138,75.267"/>
<g display="none">
	<g display="inline">
		<path display="none" fill="#A9A8AC" d="M32.963,150.965H4.233c-2.313,0-3.468-0.744-3.468-2.235c0-0.942,0.556-1.961,1.666-3.055
			l20.129-20.435H0v-5.43h28.28c0.93,0,1.726,0.198,2.386,0.593c0.781,0.456,1.171,1.124,1.171,2.009
			c0,0.912-0.451,1.807-1.352,2.691l-20.129,20.431h22.606V150.965z"/>
		<path display="none" fill="#A9A8AC" d="M83.5,150.986h-6.034l-4.458-21.813l-10.313,20.123c-0.69,1.371-1.65,2.054-2.881,2.054
			c-1.382,0-2.433-0.699-3.153-2.098l-10.312-20.079l-4.413,21.813h-6.08l6.89-28.611c0.18-0.822,0.579-1.535,1.194-2.146
			c0.615-0.607,1.329-0.912,2.139-0.912c1.171,0,2.281,1.019,3.332,3.058l10.267,20.397l10.313-20.397
			c1.051-2.039,2.162-3.058,3.332-3.058c0.78,0,1.501,0.319,2.162,0.96c0.57,0.576,0.96,1.275,1.171,2.098L83.5,150.986z"/>
		<path display="none" fill="#A9A8AC" d="M113.551,136.814l-5.362-8.988l-13.867,23.085l-6.889,0.01l16.705-28.162
			c0.42-0.729,1.006-1.398,1.758-2.009c0.898-0.699,1.711-1.049,2.431-1.049c0.778,0,1.591,0.336,2.431,1.005
			c0.72,0.579,1.306,1.262,1.758,2.053l16.3,28.207l-6.89-0.045l-5.18-8.731"/>
		<path display="none" fill="#A9A8AC" d="M155.668,136.814l-5.361-8.988l-13.867,23.085l-6.89,0.01l16.705-28.162
			c0.421-0.729,1.008-1.398,1.758-2.009c0.898-0.699,1.711-1.049,2.431-1.049c0.778,0,1.591,0.336,2.431,1.005
			c0.72,0.579,1.307,1.262,1.759,2.053l16.301,28.207l-6.891-0.045l-5.18-8.731"/>
		<path display="none" fill="#A9A8AC" d="M198.023,119.811l-15.266,20.846v10.309h-5.32v-10.401l-15.67-20.753h6.891l11.576,15.326
			l10.854-15.326H198.023z"/>
		<path display="none" fill="#A9A8AC" d="M215.982,136.814l-5.357-8.988l-13.87,23.085l-6.891,0.01l16.708-28.162
			c0.419-0.729,1.005-1.398,1.756-2.009c0.901-0.699,1.71-1.049,2.431-1.049c0.781,0,1.59,0.336,2.434,1.005
			c0.72,0.579,1.306,1.262,1.755,2.053l16.301,28.207l-6.891-0.045l-5.176-8.731"/>
	</g>
</g>
<path display="none" fill-rule="evenodd" clip-rule="evenodd" fill="#00AFDA" d="M141.145,15.095l-1.28-1.139
	c-1.015-0.996-0.027-0.075,0.987-1.097c0.991-1.018,1.066-4.199,2.085-3.181l1.263,1.144l9.857,9.855
	c0.991,0.994,0.991,2.67,0,3.665c-1.024,1.02-2.67,1.02-3.661,0L141.145,15.095z M135.789,9.741"/>
<path display="none" fill-rule="evenodd" clip-rule="evenodd" fill="#7760A9" d="M94.669,12.091
	c-0.993-0.996,0.652-0.734,1.646-1.755c1.021-1.018,0.652-3.212,1.646-2.194c1.162,1.162,0.091,0.135,1.387,1.054
	c4.89,3.467,10.625,5.2,16.375,5.2c4.912,0,9.813-1.265,14.187-3.796c2.102-1.216,0.369,0.439,2.169-1.361
	c0.99-0.993,0.106,1.64,1.097,2.632c1.019,0.998,0,0,0,0c-0.22,0.658,1.934,1.671-0.477,3.084
	c-5.229,3.064-11.104,4.597-16.976,4.597c-6.944,0.021-13.912-2.136-19.785-6.428c-1.381-1.01-1.008-0.994-2.254-2.24L94.669,12.091
	z M91.988,9.741"/>
<path display="none" fill-rule="evenodd" clip-rule="evenodd" fill="#00AFDA" d="M72.717,32.701l-2.511,2.426
	c-1.02,0.992-0.323-0.873-1.316-1.865c-1.021-1.023-2.633-1.316-2.633-1.316l2.578-2.687l8.509-8.511c0.994-1.02,2.643-1.02,3.663,0
	c0.994,1.02,0.994,2.641,0,3.661L72.717,32.701z M67.793,37.626"/>
<path display="none" fill-rule="evenodd" clip-rule="evenodd" fill="#00AFDA" d="M150.396,20.676c0.991-1.021,2.637-1.021,3.661,0
	c0.991,0.994,0.991,2.67,0,3.665h-0.023c-10.556,10.571-24.446,15.857-38.313,15.857c-13.869,0-27.735-5.286-38.307-15.857h-0.025
	c-0.995-0.994-0.995-2.67,0-3.665c1.02-1.021,2.668-1.021,3.663,0c9.551,9.58,22.11,14.343,34.669,14.343
	C128.282,35.02,140.811,30.232,150.396,20.676L150.396,20.676z M150.396,20.676"/>
<path display="none" fill-rule="evenodd" clip-rule="evenodd" fill="#FFC50B" d="M169.866,43.844l-1.149-1.257
	c-0.994-1.023,0.103-0.106,1.097-1.097c1.021-1.028,1.642-3.88,2.633-2.852l1.14,1.599l9.642,9.637c1.021,1.001,1.021,2.646,0,3.666
	c-0.991,1-2.646,1-3.661,0L169.866,43.844z M164.962,38.943"/>
<path display="none" fill-rule="evenodd" clip-rule="evenodd" fill="#73BE44" d="M66.696,42.039
	c-1.021-0.998,0.76,0.249,1.755-0.768c1.019-0.999,0.844-3.551,1.865-2.523c0,0-0.398-0.178,1.426,1.307
	c12.77,10.397,28.365,15.609,43.979,15.609c15.813,0,31.606-5.345,44.462-16.008c1.652-1.37,1.512-1.457,1.512-1.457
	c0.994-1.029,0.299,0.836,1.316,1.865c0.998,0.991,2.414,1.755,1.536,1.975c0,0,0.688,0.165-1.105,1.651
	c-13.797,11.434-30.768,17.15-47.721,17.15c-16.753,0-33.517-5.589-47.227-16.765C66.536,42.478,68.521,43.863,66.696,42.039
	L66.696,42.039z"/>
<path display="none" fill-rule="evenodd" clip-rule="evenodd" fill="#F8961D" d="M41.88,63.512l-0.744,0.795
	c-0.995,1.017-1.943-0.19-2.962-1.207c-0.996-1-2.642-0.543-1.646-1.536l1.145-1.176l10.515-10.516c1.02-1.017,2.668-1.017,3.662,0
	c1.021,1.001,1.021,2.646,0,3.666L41.88,63.512z M37.539,67.855"/>
<path display="none" fill-rule="evenodd" clip-rule="evenodd" fill="#F8961D" d="M179.566,49.874c1.015-1.017,2.67-1.017,3.661,0
	c1.021,1.001,1.021,2.646,0,3.666c-18.625,18.631-43.07,27.948-67.506,27.948c-24.438,0-48.903-9.317-67.533-27.948
	c-0.995-1.02-0.995-2.665,0-3.666c1.02-1.017,2.668-1.017,3.662,0c17.636,17.614,40.74,26.435,63.871,26.435
	C138.827,76.308,161.956,67.488,179.566,49.874L179.566,49.874z M179.566,49.874"/>
<path display="none" fill-rule="evenodd" clip-rule="evenodd" fill="#D91F26" d="M38.284,71.986
	c-1.022-1.019-0.144-0.217,0.877-1.207c0.994-1.019,0.626-4.199,1.646-3.182c0,0,0.001,0.302,1.829,1.906
	c20.661,18.121,46.459,27.277,72.304,27.448c26.003,0.165,52.071-8.73,73.011-26.701c1.752-1.501,1.498-1.337,1.498-1.337
	c0.991-0.99-0.01,0.521,0.987,1.536c0.991,1.018,2.633,1.426,2.194,1.864c0,0,0.57,0.21-1.224,1.756
	c-21.918,18.878-49.241,28.224-76.495,28.038c-26.983-0.195-53.92-9.708-75.486-28.535c-1.984-1.731-1.581-2.245-1.581-2.245
	L38.284,71.986z M33.614,68.142"/>
<path display="none" fill="#7760A9" d="M92.611,0c-3.728,0-6.759,3.031-6.759,6.758s3.031,6.758,6.759,6.758
	c3.726,0,6.758-3.031,6.758-6.758S96.337,0,92.611,0L92.611,0z M92.611,10.638c-2.14,0-3.88-1.742-3.88-3.88s1.74-3.878,3.88-3.878
	c2.14,0,3.879,1.74,3.879,3.878S94.75,10.638,92.611,10.638L92.611,10.638z M94.436,7.881"/>
<path display="none" fill="#00AFDA" d="M137.477,1.865c-3.728,0-6.758,3.031-6.758,6.758c0,3.728,3.03,6.759,6.758,6.759
	c3.727,0,6.759-3.031,6.759-6.759C144.236,4.896,141.204,1.865,137.477,1.865L137.477,1.865z M137.477,12.503
	c-2.141,0-3.879-1.742-3.879-3.88s1.738-3.878,3.879-3.878c2.142,0,3.879,1.74,3.879,3.878S139.619,12.503,137.477,12.503
	L137.477,12.503z M139.303,9.746"/>
<path display="none" fill="#73BE44" d="M64.966,30.715c-3.727,0-6.758,3.031-6.758,6.759c0,3.727,3.031,6.758,6.758,6.758
	c3.727,0,6.759-3.031,6.759-6.758C71.725,33.747,68.693,30.715,64.966,30.715L64.966,30.715z M64.966,41.354
	c-2.14,0-3.879-1.741-3.879-3.879c0-2.139,1.74-3.878,3.879-3.878c2.141,0,3.879,1.739,3.879,3.878
	C68.845,39.612,67.107,41.354,64.966,41.354L64.966,41.354z M66.792,38.597"/>
<path display="none" fill="#FFC50B" d="M167.096,30.606c-3.729,0-6.759,3.031-6.759,6.758s3.03,6.758,6.759,6.758
	c3.727,0,6.759-3.031,6.759-6.758S170.823,30.606,167.096,30.606L167.096,30.606z M167.096,41.244c-2.141,0-3.879-1.742-3.879-3.88
	s1.738-3.878,3.879-3.878s3.879,1.74,3.879,3.878S169.237,41.244,167.096,41.244L167.096,41.244z M168.921,38.487"/>
<path display="none" fill="#D91F26" d="M194.521,60.883c-3.729,0-6.759,3.03-6.759,6.759c0,3.727,3.03,6.757,6.759,6.757
	c3.727,0,6.758-3.03,6.758-6.757C201.279,63.913,198.248,60.883,194.521,60.883L194.521,60.883z M194.521,71.519
	c-2.141,0-3.879-1.741-3.879-3.877c0-2.139,1.738-3.88,3.879-3.88s3.879,1.741,3.879,3.88
	C198.4,69.778,196.662,71.519,194.521,71.519L194.521,71.519z M196.346,68.763"/>
<path display="none" fill="#3B5A9A" d="M187.468,9.2v107.47c0,0.796-0.279,1.452-0.836,1.971c-0.558,0.518-1.234,0.775-2.029,0.775
	H47.498c-0.795,0-1.473-0.258-2.03-0.775c-0.557-0.519-0.835-1.175-0.835-1.971V9.2c0-0.796,0.278-1.453,0.835-1.971
	c0.558-0.517,1.235-0.776,2.03-0.776h137.105c0.795,0,1.472,0.26,2.029,0.776C187.189,7.747,187.468,8.404,187.468,9.2L187.468,9.2z
	 M122.488,106.281V66.396h14.568l0.598-14.328h-15.166V41.56c0-1.99,0.339-3.563,1.016-4.717s2.289-1.691,4.836-1.613h8.956
	l0.358-13.373c-1.115-0.16-2.25-0.259-3.403-0.299c-1.155-0.04-2.209-0.1-3.165-0.18c-1.114-0.078-2.229-0.119-3.343-0.119
	c-3.503-0.238-6.509,0.14-9.016,1.135c-2.509,0.995-4.577,2.389-6.21,4.18c-1.632,1.791-2.846,3.841-3.643,6.149
	c-0.795,2.308-1.193,4.657-1.193,7.046v12.299h-10.27v14.328h10.27v39.885H122.488z M122.488,106.281"/>
<g>
	<g>
		<path fill-rule="evenodd" clip-rule="evenodd" fill="#D44836" d="M183.656,6.453H49.055c-2.386,0-3.323,0.938-3.323,3.323v106.752
			c0,2.39,0.938,3.323,3.323,3.323h134.601c2.391,0,3.324-0.934,3.324-3.323V9.776C186.98,7.39,186.046,6.453,183.656,6.453
			L183.656,6.453z M107.844,96.422c-12.584,0-18.652-5.995-18.652-12.434c0-3.128,1.559-7.562,6.68-10.604
			c5.379-3.302,12.669-3.736,16.575-4.003c-1.221-1.565-2.605-3.216-2.605-5.91c0-1.478,0.435-2.347,0.865-3.39
			c-0.954,0.089-1.904,0.173-2.773,0.173c-9.196,0-14.401-6.873-14.401-13.653c0-3.994,1.819-8.432,5.552-11.647
			c4.948-4.087,11.707-5.197,16.397-5.197h17.094l-5.645,3.546h-5.375c1.997,1.651,6.156,5.126,6.156,11.737
			c0,6.43-3.64,9.481-7.283,12.348c-1.127,1.128-2.432,2.343-2.432,4.26c0,1.909,1.305,2.952,2.254,3.74l3.129,2.429
			c3.816,3.217,7.287,6.172,7.287,12.18C130.667,88.169,122.763,96.422,107.844,96.422L107.844,96.422z M154.009,62.027h-8.723
			v8.748h-4.293v-8.748h-8.68v-4.339h8.68v-8.697h4.293v8.697h8.723V62.027z M154.009,62.027"/>
		<path fill-rule="evenodd" clip-rule="evenodd" fill="#D44836" d="M120.08,49.037c0-6.261-3.732-15.996-10.931-15.996
			c-2.259,0-4.686,1.132-6.075,2.871c-1.478,1.828-1.905,4.167-1.905,6.434c0,5.822,3.382,15.474,10.846,15.474
			c2.166,0,4.501-1.039,5.898-2.433C119.906,53.381,120.08,50.603,120.08,49.037L120.08,49.037z M120.08,49.037"/>
		<path fill-rule="evenodd" clip-rule="evenodd" fill="#D44836" d="M115.393,71.907c-0.693-0.089-1.127-0.089-1.993-0.089
			c-0.781,0-5.467,0.169-9.111,1.397c-1.909,0.688-7.459,2.777-7.459,8.95s5.987,10.613,15.27,10.613
			c8.33,0,12.754-4.006,12.754-9.394C124.854,78.94,121.992,76.601,115.393,71.907L115.393,71.907z M115.393,71.907"/>
	</g>
</g>
</svg>
